<svg width="64" height="77" viewBox="0 0 64 77" fill="none" xmlns="http://www.w3.org/2000/svg">
<path d="M2.65129 0.241672C1.47589 -0.444057 0 0.410877 0 1.78233V52.4283C0 52.7667 0.371181 52.9894 0.662823 52.8112L23.2695 39.6577C24.1533 39.1412 24.1533 37.8588 23.2695 37.3423L12.8146 31.2598C11.4447 30.4672 10.6052 28.9978 10.6052 27.4037V21.6952C10.6052 21.3568 10.9764 21.1341 11.268 21.3123L38.1521 36.9504C39.3275 37.6362 39.3275 39.346 38.1521 40.0318L3.09317 60.4344C1.17541 61.5476 0 63.6048 0 65.8312V75.2177C0 76.5891 1.47589 77.4441 2.65129 76.7583L61.7928 42.365C64.7357 40.6551 64.7357 36.3627 61.7928 34.6528L2.65129 0.241672Z" fill="#E50914"/>
</svg>
